# xmcd
#
# Track frame offsets:
# 200
# 22122
# 42745
#
# Disc length: 1036 seconds
#
#
# Revision: 2
# Processed by: cddbd v1.5.1PL2 Copyright (c) Steve Scherf et al.
# Submitted via: FreeRIP 2.945 
#
DISCID=25040a03
DTITLE=Mike and The Mechanics - A Time And Place
DYEAR=1991
DGENRE=Rock
TTITLE0=Mike and The Mechanics - A Time And Place
TTITLE1=Mike and The Mechanics - Yesterday, Today, Tomorrow
TTITLE2=Mike and The Mechanics - Word of Mouth (east west mix)
EXTD=
EXTT0=
EXTT1=
EXTT2=
PLAYORDER=
